<svg xmlns="http://www.w3.org/2000/svg" viewBox="0 0 71.84 34.29"><defs><style>.cls-1{fill:#9fffcb;}.cls-2{fill:#0a122a;}</style></defs><g id="Layer_2" data-name="Layer 2"><g id="Layer_1-2" data-name="Layer 1"><circle class="cls-1" cx="17.14" cy="17.14" r="17.14"/><path class="cls-2" d="M16.15,9.13h2.39L24,19.84l1.64,3.53h.05c-.07-1.69-.28-3.61-.28-5.4V9.13h2.08v17H25.1L19.64,15.47,18,11.93H18c.07,1.75.28,3.57.28,5.33v8.92H16.15Z"/><path class="cls-2" d="M42.75,9.13h2.5l5.74,17H48.65l-2.94-9.51c-.59-1.9-1.17-3.77-1.69-5.75h-.1c-.55,2-1.09,3.85-1.69,5.75l-3,9.51H37Zm-2.7,10.11h7.82V21H40.05Z"/><path class="cls-2" d="M60.51,9.13H62.9l5.46,10.71L70,23.37h0c-.08-1.69-.29-3.61-.29-5.4V9.13h2.08v17H69.45L64,15.47l-1.64-3.54H62.3c.08,1.75.29,3.57.29,5.33v8.92H60.51Z"/></g></g></svg>